<?xml version="1.0" encoding="iso-8859-1"?>
<!-- Generator: Adobe Illustrator 19.0.0, SVG Export Plug-In . SVG Version: 6.00 Build 0)  -->
<svg version="1.1" id="Capa_1" xmlns="http://www.w3.org/2000/svg" xmlns:xlink="http://www.w3.org/1999/xlink" x="0px" y="0px"
	 viewBox="0 0 512.002 512.002" style="enable-background:new 0 0 512.002 512.002;" xml:space="preserve">
<g>
	<g>
		<path d="M459.64,92.822h-43.638V36.68c0-11.718-9.532-21.251-21.25-21.251h-32.5c-11.718,0-21.25,9.533-21.25,21.251v56.142
			H171.001V36.68c0-11.718-9.533-21.251-21.251-21.251h-32.499C105.533,15.429,96,24.962,96,36.68v56.142H52.362
			C23.489,92.822,0,116.312,0,145.185l0.001,3.15L0,444.212c0,28.872,23.489,52.361,52.362,52.361H459.64
			c28.873,0,52.362-23.489,52.362-52.361V145.185C512.002,116.312,488.513,92.822,459.64,92.822z M361.002,36.68
			c0-0.667,0.584-1.251,1.25-1.251h32.5c0.666,0,1.25,0.584,1.25,1.251v93.313c0,0.667-0.584,1.251-1.25,1.251h-32.5
			c-0.666,0-1.25-0.584-1.25-1.251V36.68z M116,36.68c0-0.667,0.585-1.251,1.251-1.251h32.499c0.666,0,1.251,0.584,1.251,1.251
			v93.313c0,0.667-0.585,1.251-1.251,1.251h-32.499c-0.666,0-1.251-0.584-1.251-1.251V36.68z M123,476.573H52.362
			C34.518,476.573,20,462.056,20,444.212v-71.978h103V476.573z M123,352.234H20V247.895h103V352.234z M246,476.573H143V372.234h103
			V476.573z M246,352.234H143V247.895h103V352.234z M369,476.573H266V372.234h103V476.573z M369,352.234H266V247.895h103V352.234z
			 M492.002,444.212c0,17.844-14.518,32.361-32.362,32.361H389V372.234h103.002V444.212z M492.002,352.234H389V247.895h103.002
			V352.234z M492.002,192.794h-82.48c-5.523,0-10,4.477-10,10c0,5.523,4.477,10,10,10h82.48v15.101H20v-82.71
			c0-17.845,14.518-32.363,32.362-32.363H96v17.171c0,11.718,9.533,21.251,21.251,21.251h32.499
			c11.718,0,21.251-9.533,21.251-21.251v-17.171h170.001v17.171c0,11.718,9.532,21.251,21.25,21.251h32.5
			c11.718,0,21.25-9.533,21.25-21.251v-17.171h43.638c17.845,0,32.362,14.518,32.362,32.363V192.794z"/>
	</g>
</g>
<g>
	<g>
		<path d="M380.303,192.794h-0.781c-5.523,0-10,4.477-10,10c0,5.522,4.477,10,10,10h0.781c5.522,0,10-4.477,10-10
			S385.825,192.794,380.303,192.794z"/>
	</g>
</g>
<g>
	<g>
		<path d="M473.375,272.064c-4.418-3.314-10.685-2.418-14,2l-23.082,30.774l-15.594-15.595c-3.903-3.904-10.236-3.906-14.142-0.001
			c-3.906,3.905-3.906,10.236-0.001,14.142l23.746,23.749c1.882,1.882,4.428,2.929,7.07,2.929c0.236,0,0.473-0.008,0.709-0.025
			c2.893-0.206,5.553-1.656,7.292-3.975l30.001-39.998C478.689,281.646,477.793,275.378,473.375,272.064z"/>
	</g>
</g>
<g>
	<g>
		<path d="M350.377,396.403c-4.418-3.314-10.686-2.418-14,2l-23.083,30.776l-15.598-15.598c-3.906-3.905-10.236-3.905-14.143,0
			c-3.905,3.905-3.905,10.237,0,14.143l23.751,23.751c1.882,1.882,4.429,2.929,7.07,2.929c0.236,0,0.473-0.008,0.71-0.025
			c2.892-0.205,5.552-1.655,7.291-3.975l30.001-40C355.69,405.985,354.795,399.717,350.377,396.403z"/>
	</g>
</g>
<g>
	<g>
		<path d="M227.375,272.064c-4.418-3.314-10.686-2.418-14,2l-23.081,30.775l-15.599-15.597c-3.904-3.905-10.237-3.905-14.142,0.001
			c-3.905,3.905-3.905,10.237,0.002,14.142l23.751,23.749c1.882,1.882,4.428,2.929,7.069,2.929c0.236,0,0.473-0.008,0.71-0.025
			c2.892-0.206,5.552-1.656,7.291-3.975l29.999-39.999C232.689,281.646,231.793,275.378,227.375,272.064z"/>
	</g>
</g>
<g>
</g>
<g>
</g>
<g>
</g>
<g>
</g>
<g>
</g>
<g>
</g>
<g>
</g>
<g>
</g>
<g>
</g>
<g>
</g>
<g>
</g>
<g>
</g>
<g>
</g>
<g>
</g>
<g>
</g>
</svg>
