<svg xmlns="http://www.w3.org/2000/svg" viewBox="0 0 299.997 299.997"><path d="M149.996 0C67.157 0 .001 67.158.001 149.997c0 82.837 67.156 150 149.995 150s150-67.163 150-150C299.996 67.158 232.835 0 149.996 0zm-4.702 100.159h111.864c.763 0 1.502.091 2.225.223l-62.648 36.017-52.964-36.087c.504-.062.999-.153 1.523-.153zM60.572 185.31v-15.558h49.921l-.609 5.047-.112.931v.936c0 3.019.501 5.921 1.398 8.644H60.572zm51.721-30.468h-68.58V139.28h70.465l-1.885 15.562zm5.278-43.624l-.965 7.965H28.585v-15.562h90.384a27.58 27.58 0 0 0-1.398 7.597zm131.804 77.634H137.513a12.135 12.135 0 0 1-8.58-3.538v-.003a12.375 12.375 0 0 1-1.46-1.758c-.01-.016-.029-.031-.039-.047a12.393 12.393 0 0 1-1.032-1.891c-.029-.065-.073-.122-.104-.189-.265-.622-.451-1.284-.609-1.956-.029-.117-.083-.223-.106-.34a12.302 12.302 0 0 1-.249-2.464l4.145-34.259.379-3.13 3.258-26.94c0-.77.093-1.515.231-2.243.016-.078.008-.163.026-.241.01.005.018.013.029.021a12.24 12.24 0 0 1 1.958-4.547v5.88l57.741 39.132c.078.054.163.083.244.13.083.052.169.093.257.14.456.233.923.42 1.401.545.052.013.099.021.15.031.524.124 1.056.2 1.582.2h.015c.527 0 1.058-.075 1.582-.2.052-.01.099-.018.15-.031a6.882 6.882 0 0 0 1.401-.545c.086-.047.171-.088.257-.14.08-.047.163-.075.244-.13l68.792-39.716c.08.565.171 1.128.171 1.717l-7.781 64.329c-.007 6.731-5.461 12.183-12.191 12.183z"/></svg>