<svg xmlns="http://www.w3.org/2000/svg" viewBox="0 0 507.95 507.95"><path d="M337 158.65v-57.7h-65.9v57.7h-57.7v65.9h57.7v57.7H337v-57.7h57.7v-65.9H337zm41.2 49.4h-57.7v57.7h-32.9v-57.7h-57.7v-32.9h57.7v-57.7h32.9v57.7h57.7v32.9z"/><path d="M436.1 406.35l-64.1-64.1c-9.6-9.6-25.3-9.6-34.9 0l-29.1 29.1c-9.6 9.6-25.3 9.6-34.9 0l-139.9-139.7c-9.6-9.6-9.6-25.3 0-34.9l29.1-29.1c4.7-4.7 13.5-20 0-34.9l-64.1-64.1c-9.3-9.3-25.6-9.3-34.9 0l-17.5 17.4C16.3 115.55 0 154.85 0 196.65s16.3 81.1 45.8 110.7l151.4 151.4c30.5 30.5 70.6 45.8 110.7 45.8 40.1 0 80.2-15.3 110.7-45.8l17.5-17.5c9.6-9.6 9.6-25.3 0-34.9zM75 80.15c5.1-4.5 10-1.6 11.7 0l64.1 64.1c4.6 5 1.6 10.1 0 11.6l-17.5 17.5-75.8-75.7L75 80.15zm232.9 408c-37.4 0-72.6-14.6-99-41L57.5 295.65c-26.4-26.4-41-61.6-41-99 0-31.8 10.6-62 30.1-86.6l75 75c-16.1 16.1-16.1 42.2 0 58.2l139.8 139.8c16.1 16.1 42.2 16.1 58.2 0l75 75c-24.6 19.4-54.8 30.1-86.7 30.1zm116.5-58.5l-17.4 17.5-75.7-75.7 17.5-17.5c3.2-3.2 8.4-3.2 11.6 0l64.1 64.1c3.1 3.2 3.1 8.4-.1 11.6z"/><path d="M173.947 365.568l11.667-11.668 11.667 11.668-11.667 11.667zM150.681 342.288l11.667-11.668 11.667 11.668-11.667 11.667zM127.347 318.975l11.67-11.665 11.665 11.668-11.67 11.666zM443 68.35c-86.6-86.6-227.5-86.6-314.1 0l11.6 11.6c80.2-80.2 210.7-80.2 290.9 0s80.2 210.7 0 290.9l11.6 11.6c86.6-86.6 86.6-227.5 0-314.1z"/></svg>