<svg xmlns="http://www.w3.org/2000/svg" viewBox="0 0 512 512"><g fill="#2d527c"><path d="M222.717 366.95a15.317 15.317 0 0 1-13.692-8.463l-41.575-83.069-23.142 35.614a15.32 15.32 0 0 1-12.844 6.971H15.318C6.858 318.002 0 311.144 0 302.684s6.858-15.318 15.318-15.318h107.833l33.184-51.067c2.993-4.604 8.232-7.242 13.703-6.948a15.318 15.318 0 0 1 12.839 8.438l35.382 70.697 35.928-136.243a15.318 15.318 0 0 1 28.816-2.3l26.233 59.206 22.079-34.224a15.322 15.322 0 0 1 12.769-7.014c5.24-.052 10.002 2.538 12.862 6.841l22.964 34.573h116.773c8.46 0 15.318 6.858 15.318 15.318s-6.858 15.318-15.318 15.318H371.695a15.32 15.32 0 0 1-12.76-6.842l-14.562-21.924-24.776 38.406a15.32 15.32 0 0 1-26.877-2.098l-20.043-45.236-35.143 133.27a15.317 15.317 0 0 1-14.817 11.413z"/><path d="M247.875 478.107c-2.226 0-4.453-.484-6.516-1.455-73.068-34.345-146.415-97.757-191.42-165.49a15.316 15.316 0 1 1 12.758-23.795h60.454l33.184-51.068a15.318 15.318 0 0 1 26.542 1.49l35.382 70.697 35.928-136.243a15.318 15.318 0 0 1 28.816-2.3l26.233 59.206 22.079-34.224a15.322 15.322 0 0 1 12.769-7.014h.103a15.32 15.32 0 0 1 12.76 6.842l27.509 41.416c4.681 7.048 2.763 16.554-4.283 21.235-7.049 4.68-16.555 2.762-21.235-4.283l-14.564-21.924-24.775 38.406a15.331 15.331 0 0 1-14.065 6.968 15.318 15.318 0 0 1-12.812-9.067l-20.043-45.236-35.143 133.27a15.317 15.317 0 0 1-28.509 2.95l-41.575-83.069-23.142 35.614a15.32 15.32 0 0 1-12.844 6.971H92.704c40.558 51.659 98.551 99.672 155.172 127.775 52.656-26.141 107.401-69.974 147.65-118.421 5.407-6.508 15.062-7.4 21.57-1.994 6.507 5.406 7.4 15.063 1.994 21.57-44.641 53.736-106.21 102.227-164.698 129.719a15.321 15.321 0 0 1-6.517 1.454z"/></g><path d="M169.179 244.646l53.544 106.986 46.275-175.482 37.727 85.149 37.461-58.069 27.51 41.416h91.694c3.762-10.019 6.72-20.013 8.743-29.903 2.085-10.218 3.215-20.38 3.215-30.324 0-74.655-59.694-135.207-133.342-135.207-36.73 0-69.986 15.082-94.132 39.444-24.145-24.363-57.401-39.444-94.132-39.444-73.646 0-133.342 60.552-133.342 135.207 0 9.944 1.13 20.106 3.215 30.324 5.946 29.077 19.87 59.031 39.08 87.943h68.767l37.717-58.04z" fill="#cee8fa"/><path d="M222.717 366.95a15.32 15.32 0 0 1-13.692-8.461L167.45 275.42l-23.142 35.614a15.32 15.32 0 0 1-12.844 6.971H62.697c-5.13 0-9.92-2.567-12.758-6.841-21.318-32.081-35.221-63.49-41.329-93.35-2.339-11.474-3.525-22.707-3.525-33.394 0-83 66.688-150.525 148.659-150.525 34.693 0 67.609 11.981 94.132 34.011 26.523-22.03 59.439-34.011 94.132-34.011 81.971 0 148.658 67.525 148.658 150.525 0 10.692-1.186 21.924-3.523 33.386-2.134 10.434-5.3 21.275-9.411 32.225a15.317 15.317 0 0 1-14.34 9.933h-91.695a15.32 15.32 0 0 1-12.76-6.842l-14.563-21.924-24.776 38.406a15.318 15.318 0 0 1-26.877-2.099l-20.043-45.236-35.143 133.27a15.317 15.317 0 0 1-14.818 11.411zm-53.54-137.622a15.318 15.318 0 0 1 13.7 8.463l35.382 70.697 35.928-136.243a15.318 15.318 0 0 1 28.816-2.3l26.233 59.206 22.079-34.224a15.322 15.322 0 0 1 12.769-7.014c5.24-.052 10.004 2.538 12.862 6.841l22.964 34.573h72.584c1.91-6.017 3.46-11.925 4.632-17.655 1.927-9.445 2.904-18.616 2.904-27.255 0-66.108-52.944-119.89-118.022-119.89-31.375 0-60.943 12.398-83.251 34.909a15.316 15.316 0 0 1-21.76 0c-22.309-22.511-51.876-34.909-83.251-34.909-65.079 0-118.024 53.782-118.024 119.89 0 8.636.977 17.808 2.906 27.264 4.889 23.909 15.78 49.343 32.398 75.686h52.126l33.184-51.068a15.316 15.316 0 0 1 12.841-6.971z" fill="#2d527c"/></svg>