<?xml version="1.0" encoding="utf-8"?>
<!-- Generator: Adobe Illustrator 15.1.0, SVG Export Plug-In . SVG Version: 6.00 Build 0)  -->
<!DOCTYPE svg PUBLIC "-//W3C//DTD SVG 1.1//EN" "http://www.w3.org/Graphics/SVG/1.1/DTD/svg11.dtd">
<svg version="1.1" id="Layer_1" xmlns="http://www.w3.org/2000/svg" xmlns:xlink="http://www.w3.org/1999/xlink" x="0px" y="0px"
	 width="103.833px" height="103.833px" viewBox="-2.333 -1.833 103.833 103.833"
	 enable-background="new -2.333 -1.833 103.833 103.833" xml:space="preserve">
<g>
	<g>
		<g>
			<g>
				<path fill="#7AC143" d="M91.874,55.05c-0.92-0.275-1.894,0.189-2.269,1.078c-0.244,0.577-6.237,14.282-27.834,18.105
					c-2.776,0.488-5.579,0.736-8.33,0.736c-12.993,0-21.325-5.546-21.402-5.6c-0.793-0.54-1.875-0.398-2.494,0.339
					c-0.621,0.733-0.587,1.821,0.082,2.513c0.182,0.188,4.514,4.641,11.584,8.338c5.565,2.906,11.807,4.139,14.422,4.555
					l2.628,9.005c0.175,0.591,0.625,1.06,1.208,1.256c0.096,0.032,2.313,0.757,5.377,0.757c0.968,0,1.926-0.07,2.856-0.215
					c5.093-0.783,7.427-2.727,7.677-2.945c0.328-0.291,0.545-0.685,0.614-1.117l1.604-10.223c1.385-1.137,4.869-4.197,8.071-8.684
					c6.15-8.604,7.464-15.477,7.514-15.762C93.357,56.241,92.791,55.324,91.874,55.05z"/>
			</g>
			<g>
				<path fill="#7AC143" d="M64.311,71.386c2.746,0.713,5.683-1.459,6.567-4.857c0.885-3.396-0.622-6.721-3.365-7.438
					c-2.746-0.714-5.688,1.454-6.567,4.852C60.058,67.334,61.565,70.667,64.311,71.386z"/>
			</g>
		</g>
	</g>
	<g>
		<g>
			<g>
				<path fill="#7AC143" d="M39.141,14.045c-0.377-0.688-1.198-0.993-1.927-0.72C22.595,18.841,13.15,30.951,13.15,44.181
					c0,9.208,4.404,17.815,12.398,24.25c0.274,0.225,0.6,0.334,0.931,0.348c0.021,0,0.043,0,0.063,0
					c0.865,0,1.565-0.701,1.565-1.565c0-0.371-0.131-0.709-0.346-0.978c-0.4-0.666-2.183-3.789-4.059-9.414
					c-0.767-2.309-1.141-4.078-1.32-5.295l4.314,1.052c0.225,0.058,0.457,0.062,0.682,0.012c0.512-0.101,3.132-0.892,4.346-6.349
					c1.024-4.609-0.129-7.28-0.268-7.568c-0.062-0.134-0.144-0.261-0.242-0.374l-5.14-5.837c0.453-0.938,1.532-2.943,4.029-6.828
					c3.927-6.111,8.54-9.55,8.586-9.586C39.318,15.586,39.511,14.731,39.141,14.045z"/>
			</g>
			<g>
				<path fill="#7AC143" d="M12.474,29.383c-1.955-2.917-5.446-3.997-7.803-2.421C2.316,28.544,1.99,32.186,3.942,35.1
					c1.955,2.912,5.447,3.997,7.801,2.418C14.099,35.938,14.424,32.296,12.474,29.383z"/>
			</g>
		</g>
	</g>
	<g>
		<path fill="#0076C0" d="M79.941,15.09c2.463,0.207,4.667-2.095,4.923-5.146c0.257-3.047-1.532-5.688-3.997-5.896
			c-2.46-0.208-4.669,2.098-4.92,5.146C75.688,12.243,77.475,14.882,79.941,15.09z"/>
		<path fill="#0076C0" d="M81.782,18.677c-9.42-6.842-19.993-8.281-27.201-8.281c-6.416,0-10.824,1.104-11.008,1.148
			c-0.77,0.197-1.271,0.938-1.164,1.724c0.1,0.778,0.764,1.357,1.549,1.357h0.022l0.179-0.002c1.513,0,9.38,0.144,15.903,3
			c3.038,1.329,4.218,2.206,4.637,2.587l-1.027,9.412c-0.04,0.383,0.057,0.766,0.281,1.08c0.107,0.146,2.651,3.668,6.465,5.231
			c1.395,0.571,2.857,0.858,4.348,0.858c1.532,0,2.557-0.312,2.665-0.348c0.346-0.109,0.64-0.338,0.836-0.645l3.279-5.098
			c1.401,1.245,3.764,3.635,5.954,7.252c3.313,5.473,4.477,12.053,4.485,12.123c0.128,0.722,0.734,1.258,1.463,1.294
			c0.029,0,0.058,0,0.082,0c0.697,0,1.316-0.464,1.508-1.14C95.084,50.044,99.913,31.848,81.782,18.677z"/>
	</g>
</g>
</svg>
