<svg xmlns="http://www.w3.org/2000/svg" viewBox="0 0 512 512"><path d="M362 150v15c0 24.899 20.099 45 45 45h60c24.901 0 45-20.101 45-45v-15H362zM0 150v15c0 24.899 20.099 45 45 45h60c24.901 0 45-20.101 45-45v-15H0zM377 0H135C65.7 0 8.401 52.5.901 120h510.198C503.599 52.5 446.3 0 377 0zM287 150h-62c-19.501 0-36.301 12.599-42.299 30h146.598c-5.999-17.401-22.798-30-42.299-30zM257 302c-32.999 0-60 26.999-60 60 0 32.999 27.001 60 60 60 32.999 0 60-27.001 60-60 0-33.001-27.001-60-60-60zm0 90c-16.5 0-30-13.5-30-30s13.5-30 30-30 30 13.5 30 30-13.5 30-30 30z"/><path d="M476.3 420.2l-76.8-186.501-.901-1.8C390.5 218.399 375.801 210 359.9 210H152.1c-17.528 0-29.902 8.995-39.3 23.099 0 .3-.3.3-.3.601L35.7 420.2c-3.9 9-5.7 18.9-5.7 28.799V467c0 24.899 20.099 45 45 45h362c24.901 0 45-20.101 45-45v-18.001c0-9.899-1.8-19.799-5.7-28.799zM257 452c-49.501 0-90-40.501-90-90 0-49.501 40.499-90 90-90s90 40.499 90 90c0 49.499-40.499 90-90 90z"/></svg>