<?xml version="1.0" encoding="iso-8859-1"?>
<!-- Generator: Adobe Illustrator 19.0.0, SVG Export Plug-In . SVG Version: 6.00 Build 0)  -->
<svg version="1.1" id="Capa_1" xmlns="http://www.w3.org/2000/svg" xmlns:xlink="http://www.w3.org/1999/xlink" x="0px" y="0px"
	 viewBox="0 0 507.95 507.95" style="enable-background:new 0 0 507.95 507.95;" xml:space="preserve">
<g>
	<g>
		<path d="M337,158.65v-57.7h-65.9v57.7h-57.7v65.9h57.7v57.7H337v-57.7h57.7v-65.9H337z M378.2,208.05h-57.7v57.7h-32.9v-57.7
			h-57.7v0v-32.9h57.7v-57.7h32.9v57.7h57.7V208.05z"/>
	</g>
</g>
<g>
	<g>
		<path d="M436.1,406.35l-64.1-64.1c-9.6-9.6-25.3-9.6-34.9,0l-29.1,29.1c-9.6,9.6-25.3,9.6-34.9,0l-139.9-139.7
			c-9.6-9.6-9.6-25.3,0-34.9l29.1-29.1c4.7-4.7,13.5-20,0-34.9l-64.1-64.1c-9.3-9.3-25.6-9.3-34.9,0l-17.5,17.4
			C16.3,115.55,0,154.85,0,196.65c0,41.8,16.3,81.1,45.8,110.7l151.4,151.4c30.5,30.5,70.6,45.8,110.7,45.8
			c40.1,0,80.2-15.3,110.7-45.8l17.5-17.5C445.7,431.65,445.7,415.95,436.1,406.35z M75,80.15c5.1-4.5,10-1.6,11.7,0l64.1,64.1
			c4.6,5,1.6,10.1,0,11.6l-17.5,17.5l-75.8-75.7L75,80.15z M307.9,488.15c-37.4,0-72.6-14.6-99-41L57.5,295.65
			c-26.4-26.4-41-61.6-41-99c0-31.8,10.6-62,30.1-86.6l75,75c-16.1,16.1-16.1,42.2,0,58.2l139.8,139.8c16.1,16.1,42.2,16.1,58.2,0
			l75,75C370,477.45,339.8,488.15,307.9,488.15z M424.4,429.65l-17.4,17.5l-75.7-75.7l17.5-17.5c3.2-3.2,8.4-3.2,11.6,0l64.1,64.1
			C427.6,421.25,427.6,426.45,424.4,429.65z"/>
	</g>
</g>
<g>
	<g>
		<rect x="177.368" y="357.318" transform="matrix(0.7071 -0.7071 0.7071 0.7071 -204.1293 238.325)" width="16.5" height="16.5"/>
	</g>
</g>
<g>
	<g>
		<rect x="154.102" y="334.038" transform="matrix(0.7071 -0.7071 0.7071 0.7071 -194.4828 215.0548)" width="16.5" height="16.5"/>
	</g>
</g>
<g>
	<g>
		<rect x="130.768" y="310.727" transform="matrix(0.7072 -0.707 0.707 0.7072 -184.8158 191.682)" width="16.5" height="16.5"/>
	</g>
</g>
<g>
	<g>
		<path d="M443,68.35c-86.6-86.6-227.5-86.6-314.1,0l11.6,11.6c80.2-80.2,210.7-80.2,290.9,0s80.2,210.7,0,290.9l11.6,11.6
			C529.6,295.85,529.6,154.95,443,68.35z"/>
	</g>
</g>
<g>
</g>
<g>
</g>
<g>
</g>
<g>
</g>
<g>
</g>
<g>
</g>
<g>
</g>
<g>
</g>
<g>
</g>
<g>
</g>
<g>
</g>
<g>
</g>
<g>
</g>
<g>
</g>
<g>
</g>
</svg>
