<?xml version="1.0" encoding="utf-8"?>
<!-- Generator: Adobe Illustrator 15.1.0, SVG Export Plug-In . SVG Version: 6.00 Build 0)  -->
<!DOCTYPE svg PUBLIC "-//W3C//DTD SVG 1.1//EN" "http://www.w3.org/Graphics/SVG/1.1/DTD/svg11.dtd">
<svg version="1.1" id="Capa_1" xmlns="http://www.w3.org/2000/svg" xmlns:xlink="http://www.w3.org/1999/xlink" x="0px" y="0px"
	 width="595.281px" height="841.891px" viewBox="0 0 595.281 841.891" enable-background="new 0 0 595.281 841.891"
	 xml:space="preserve">
<g>
	<g>
		<path fill="#0076C0" d="M384.357,412.274c34.92-40.779,56.717-100.073,56.717-144.953c0-79.449-64.566-144.016-144.016-144.016
			c-79.449,0-144.016,64.566-144.016,144.016c0,44.88,21.796,104.174,56.716,144.953C-1.52,483.286,20.627,678.744,29.885,718.586
			H564.23C595.753,582.069,512.32,449.655,384.357,412.274z M297.058,142.522c50.504,0,93.979,30.116,113.549,73.355
			c-47.928,32.694-96.559-4.218-96.559-4.218c-33.982-19.804-76.636-17.929-108.744,4.569l-29.061,20.39
			C189.954,182.716,238.819,142.522,297.058,142.522z M172.26,267.321c0-1.523,0.117-3.047,0.234-4.57l43.826-30.818
			c26.014-18.28,60.583-19.687,88.004-3.75c0,0,53.551,41.013,112.961,6.21c2.813,10.43,4.57,21.444,4.57,32.812
			c0,68.199-55.895,172.842-124.797,172.842C228.155,440.046,172.26,335.52,172.26,267.321z M548.294,699.368H45.938
			c-14.53-90.112,22.382-176.709,90.347-228.854c4.102,26.951,12.07,52.849,23.905,77.456
			c-29.646,18.632-43.591,56.013-31.521,90.347l15.937,45.232l36.209-12.773l-6.328-18.163l-18.163,6.328l-9.609-27.186
			c-10.546-29.999,5.273-62.927,35.271-73.473c29.881-10.547,62.926,5.272,73.473,35.271l9.492,27.186l-18.163,6.328l6.328,18.163
			l36.209-12.772l-15.937-45.35c-13.828-39.373-56.599-60.349-95.971-47.575c-12.421-25.78-20.39-53.2-23.554-81.676
			c21.327-13.476,45.232-23.787,71.129-30.232c20.976,19.101,45.349,31.287,71.949,31.287s50.973-12.187,71.95-31.287
			c30.232,7.499,57.77,20.272,81.676,37.381c-5.625,25.545-15,49.802-28.125,72.301c-3.281-0.938-6.678-1.641-10.311-1.641
			c-21.211,0-38.436,17.226-38.436,38.436s17.225,38.436,38.436,38.436c21.209,0,38.436-17.226,38.436-38.436
			c0-10.664-4.336-20.272-11.484-27.304c12.539-21.679,21.912-44.646,28.123-68.902
			C529.193,531.213,562.003,613.826,548.294,699.368z M431.464,574.57c0,10.546-8.672,19.218-19.217,19.218
			c-10.547,0-19.219-8.555-19.219-19.218c0-10.664,8.672-19.218,19.219-19.218C422.91,555.352,431.464,564.023,431.464,574.57z"/>
	</g>
</g>
</svg>
