<svg xmlns="http://www.w3.org/2000/svg" width="600" height="600"><path d="M386.717 291.329c34.92-40.78 56.717-100.073 56.717-144.953 0-79.45-64.566-144.016-144.016-144.016-79.449 0-144.016 64.566-144.016 144.016 0 44.88 21.796 104.174 56.716 144.953C.84 362.34 22.988 557.799 32.245 597.64H566.59c31.523-136.517-51.91-268.93-179.873-306.312zM299.418 21.577c50.504 0 93.98 30.116 113.55 73.355-47.929 32.694-96.56-4.218-96.56-4.218-33.982-19.804-76.636-17.93-108.744 4.569l-29.06 20.39c13.71-53.902 62.575-94.096 120.814-94.096zM174.62 146.375c0-1.523.117-3.047.234-4.57l43.826-30.818c26.014-18.28 60.583-19.686 88.004-3.75 0 0 53.551 41.014 112.961 6.21 2.813 10.43 4.57 21.444 4.57 32.812 0 68.2-55.895 172.843-124.797 172.843-68.903-.001-124.798-104.527-124.798-172.726zm376.034 432.048H48.298c-14.53-90.112 22.382-176.71 90.347-228.855 4.102 26.951 12.07 52.85 23.905 77.456-29.646 18.632-43.59 56.013-31.52 90.347l15.936 45.232 36.21-12.773-6.329-18.163-18.163 6.328-9.609-27.186c-10.546-29.999 5.273-62.927 35.271-73.473 29.881-10.547 62.926 5.272 73.473 35.271l9.492 27.186-18.163 6.328 6.328 18.163 36.21-12.772-15.938-45.35c-13.828-39.373-56.599-60.349-95.97-47.575-12.422-25.78-20.39-53.2-23.555-81.676 21.327-13.476 45.232-23.787 71.13-30.232 20.975 19.101 45.348 31.287 71.948 31.287 26.6 0 50.973-12.187 71.95-31.287 30.232 7.5 57.77 20.272 81.676 37.381-5.625 25.545-15 49.802-28.125 72.301-3.28-.938-6.678-1.64-10.31-1.64-21.212 0-38.437 17.225-38.437 38.435s17.225 38.436 38.436 38.436c21.21 0 38.436-17.226 38.436-38.436 0-10.664-4.336-20.272-11.484-27.304a271.475 271.475 0 0 0 28.123-68.902c61.987 53.317 94.797 135.93 81.088 221.472zm-116.83-124.798c0 10.546-8.672 19.218-19.217 19.218-10.547 0-19.219-8.555-19.219-19.218 0-10.664 8.672-19.218 19.22-19.218 10.662 0 19.216 8.67 19.216 19.218z" fill="#0076c0"/></svg>