<svg xmlns="http://www.w3.org/2000/svg" viewBox="0 0 512 512"><path d="M325.31 350.22a10.098 10.098 0 0 0-1.49-3.6c-.37-.539-.79-1.06-1.25-1.52-.46-.461-.97-.88-1.52-1.24-.54-.36-1.12-.67-1.72-.92-.61-.25-1.24-.44-1.87-.57a9.898 9.898 0 0 0-3.91 0c-.64.13-1.27.32-1.87.57-.61.25-1.19.56-1.73.92-.55.36-1.06.78-1.52 1.24-.46.46-.88.98-1.24 1.52a10.098 10.098 0 0 0-1.69 5.55 10.098 10.098 0 0 0 1.69 5.56c.36.54.78 1.05 1.24 1.52.46.46.97.87 1.52 1.24.54.36 1.12.67 1.73.92a10.098 10.098 0 0 0 3.82.77c.65 0 1.31-.07 1.96-.2.63-.13 1.26-.32 1.87-.57a10.146 10.146 0 0 0 3.24-2.16c.46-.47.88-.98 1.25-1.52a10.098 10.098 0 0 0 1.49-3.6c.13-.65.19-1.3.19-1.96 0-.65-.06-1.3-.19-1.95z"/><path d="M315.502 379.829c-5.523 0-10 4.477-10 10v33.662c0 37.776-30.733 68.51-68.51 68.51s-68.51-30.733-68.51-68.51v-19.336h10.921c5.523 0 10-4.477 10-10V303.24c72.976-14.302 128.211-78.736 128.211-155.838v-7.616c0-5.523-4.477-10-10-10h-10v-85.27c0-5.523-4.477-10-10-10H263.32v-2.784C263.32 14.235 249.085 0 231.588 0c-17.498 0-31.732 14.235-31.732 31.732V57.3c0 17.497 14.235 31.732 31.732 31.732S263.32 74.797 263.32 57.3v-2.784h14.295v75.269h-10c-5.523 0-10 4.477-10 10v7.616c0 54.483-44.325 98.808-98.808 98.808-54.483 0-98.807-44.325-98.807-98.808v-7.616c0-5.523-4.477-10-10-10H40V54.516h14.295V57.3c0 17.497 14.235 31.732 31.732 31.732s31.732-14.235 31.732-31.732V31.732C117.759 14.235 103.524 0 86.027 0S54.295 14.235 54.295 31.732v2.784H30c-5.523 0-10 4.477-10 10v85.269H10c-5.523 0-10 4.477-10 10v7.616c0 77.103 55.235 141.537 128.211 155.838v90.915c0 5.523 4.477 10 10 10h10.271v19.336c0 48.805 39.705 88.51 88.51 88.51s88.51-39.705 88.51-88.51v-33.662c0-5.522-4.477-9.999-10-9.999zM243.32 57.3c0 6.469-5.263 11.732-11.732 11.732s-11.732-5.263-11.732-11.732V31.732c0-6.469 5.263-11.732 11.732-11.732s11.732 5.263 11.732 11.732V57.3zM74.295 31.732C74.295 25.263 79.558 20 86.027 20c6.469 0 11.732 5.263 11.732 11.732V57.3c0 6.469-5.263 11.732-11.732 11.732-6.469 0-11.732-5.263-11.732-11.732V31.732zm69.788 253.694c-1.325-.14-2.646-.302-3.963-.48-66.966-9.051-118.933-66.026-120.1-135.161h20.003c1.273 64.416 54.069 116.423 118.784 116.423s117.511-52.007 118.784-116.423h20.003c-1.168 69.163-53.177 126.157-120.184 135.172-1.226.165-2.455.315-3.688.447-.196.021-.391.046-.588.067-1.48.152-2.966.279-4.454.383-.212.015-.424.026-.636.04-1.337.088-2.675.157-4.016.206l-.63.024c-3.062.099-6.13.1-9.193 0-.185-.006-.369-.014-.554-.021a139.41 139.41 0 0 1-4.143-.213c-.173-.012-.347-.021-.52-.033a140.74 140.74 0 0 1-4.551-.391c-.118-.012-.236-.028-.354-.04zm4.129 98.728v-78.298c.237.016.472.021.709.035 1.265.078 2.533.141 3.806.189.401.015.801.034 1.202.046 1.621.049 3.246.082 4.879.082 1.626 0 3.245-.033 4.859-.081.424-.013.847-.032 1.271-.048 1.244-.047 2.484-.109 3.72-.185.248-.015.497-.021.746-.037v78.297h-21.192z"/><path d="M446.454 362.3v-90.458c0-38.86-31.615-70.476-70.476-70.476-38.861 0-70.476 31.615-70.476 70.476v43.832c0 5.523 4.477 10 10 10s10-4.477 10-10v-43.832c0-27.833 22.643-50.476 50.476-50.476s50.476 22.643 50.476 50.476v90.598c-36.374 5.146-64.446 36.468-64.446 74.239 0 41.353 33.643 74.996 74.996 74.996 41.353 0 74.996-33.643 74.996-74.996 0-38.15-28.641-69.716-65.546-74.379zm-9.45 129.375c-30.325 0-54.996-24.671-54.996-54.996s24.671-54.996 54.996-54.996S492 406.354 492 436.679c0 30.325-24.671 54.996-54.996 54.996z"/><path d="M437.004 398.95c-20.804 0-37.729 16.925-37.729 37.729s16.925 37.729 37.729 37.729 37.729-16.925 37.729-37.729-16.925-37.729-37.729-37.729zm0 55.458c-9.776 0-17.729-7.954-17.729-17.729 0-9.776 7.954-17.729 17.729-17.729 9.775 0 17.729 7.953 17.729 17.729s-7.953 17.729-17.729 17.729z"/></svg>